{"title":"Grace 2014 HDRip x264 AAC-MiLLENiUM","uid":11558786,"size":893785072,"categoryP":"video","categoryS":"movies","magnet":"?xt=urn:btih:3585a4a9109d55488b56de3c4ad4771d5f4d7859&amp;dn=Grace+2014+HDRip+x264+AAC-MiLLENiUM&amp;tr=udp%3A%2F%2Ftracker.openbittorrent.com%3A80&amp;tr=udp%3A%2F%2Fopen.demonii.com%3A1337&amp;tr=udp%3A%2F%2Ftracker.coppersurfer.tk%3A6969&amp;tr=udp%3A%2F%2Fexodus.desync.com%3A6969","seeders":1,"leechers":0,"uploader":"TvTeam","files":4,"time":1416855246,"description":" &lt;a href=&quot;http://www.torrenting.com&quot; rel=&quot;nofollow&quot; target=&quot;_NEW&quot;&gt;http://www.torrenting.com&lt;/a&gt;\n\nSign up is OPEN - for time being. Come and have fun.\n\n------------------------------------------------------------------[img]http://s16.postimg.org/j2nrfbwp1/MV5_BMTg0_NTE4_Njg0_OV5_BMl5_Ban_Bn_Xk_Ft_ZTgw_ODE5_ODcx_Mz_E.jpg[/img]\n \n[color=red][b]Grace 2014 HDRip x264 AAC-MiLLENiUM[/b][/color]\n\n[color=red]General[/color]\n\nSource...............: 720p.WEB-DL.DD5.1.H264-RARBG [THANKS]\nIMDb Information.... : http://www.imdb.com/title/tt3068192/\nSample Included......: yes\n\nGeneral\nComplete name                            : Grace 2014 HDRip x264 AAC-MiLLENiUM.mp4\nFormat                                   : MPEG-4\nFormat profile                           : Base Media\nCodec ID                                 : isom\nFile size                                : 829 MiB\nDuration                                 : 1h 27mn\nOverall bit rate mode                    : Variable\nOverall bit rate                         : 1 323 Kbps\nEncoded date                             : UTC 2014-11-24 17:14:27\nTagged date                              : UTC 2014-11-24 17:14:27\n\nVideo\nID                                       : 1\nFormat                                   : AVC\nFormat/Info                              : Advanced Video Codec\nFormat profile                           : &lt;a class=&quot;__cf_email__&quot; href=&quot;/cdn-cgi/l/email-protection&quot; data-cfemail=&quot;440c2d232c0408706a75&quot;&gt;[email&amp;#160;protected]&lt;/a&gt;&lt;script cf-hash='f9e31' type=&quot;text/javascript&quot;&gt;\n/* &lt;![CDATA[ */!function(){try{var t=&quot;currentScript&quot;in document?document.currentScript:function(){for(var t=document.getElementsByTagName(&quot;script&quot;),e=t.length;e--;)if(t[e].getAttribute(&quot;cf-hash&quot;))return t[e]}();if(t&amp;&amp;t.previousSibling){var e,r,n,i,c=t.previousSibling,a=c.getAttribute(&quot;data-cfemail&quot;);if(a){for(e=&quot;&quot;,r=parseInt(a.substr(0,2),16),n=2;a.length-n;n+=2)i=parseInt(a.substr(n,2),16)^r,e+=String.fromCharCode(i);e=document.createTextNode(e),c.parentNode.replaceChild(e,c)}}}catch(u){}}();/* ]]&gt; */&lt;/script&gt;\nFormat settings, CABAC                   : Yes\nFormat settings, ReFrames                : 3 frames\nCodec ID                                 : avc1\nCodec ID/Info                            : Advanced Video Coding\nDuration                                 : 1h 27mn\nBit rate mode                            : Variable\nBit rate                                 : 1 012 Kbps\nMaximum bit rate                         : 40.0 Mbps\nWidth                                    : 720 pixels\nHeight                                   : 400 pixels\nDisplay aspect ratio                     : 16:9\nFrame rate mode                          : Constant\nFrame rate                               : 23.976 fps\nColor space                              : YUV\nChroma subsampling                       : 4:2:0\nBit depth                                : 8 bits\nScan type                                : Progressive\nBits/(Pixel*Frame)                       : 0.147\nStream size                              : 634 MiB (76%)\nWriting library                          : x264 core 142 r2479 dd79a61\nColor range                              : Full\n\nAudio\nID                                       : 2\nFormat                                   : AAC\nFormat/Info                              : Advanced Audio Codec\nFormat profile                           : LC\nCodec ID                                 : 40\nDuration                                 : 1h 27mn\nBit rate mode                            : Variable\nBit rate                                 : 307 Kbps\nMaximum bit rate                         : 373 Kbps\nChannel(s)                               : 6 channels\nChannel positions                        : Front: L C R, Side: L R, LFE\nSampling rate                            : 48.0 KHz\nCompression mode                         : Lossy\nStream size                              : 192 MiB (23%)\nLanguage                                 : English\nEncoded date                             : UTC 2014-11-24 15:11:21\nTagged date                              : UTC 2014-11-24 17:14:54\n\n[color=red]Plot[/color]\n\nGrace is an 18-year-old Catholic girl whose purity is overtaken by a demonic force. Will it consume her? \n \n[color=red]Screenshots[/color]\n\n[img]http://s1.postimg.org/rkerpmnj3/vlcsnap_2014_11_24_17h24m26s45.jpg[/img]\n[img]http://s1.postimg.org/72ttdzbfj/vlcsnap_2014_11_24_17h25m07s195.jpg[/img]\n[img]http://s1.postimg.org/uv7q392u7/vlcsnap_2014_11_24_17h25m34s209.jpg[/img]\n[img]http://s1.postimg.org/9vn0y0brz/vlcsnap_2014_11_24_17h25m45s65.jpg[/img]\n[img]http://s1.postimg.org/st78p04v3/vlcsnap_2014_11_24_17h26m53s245.jpg[/img]\n[img]http://s1.postimg.org/ovjyzli1r/vlcsnap_2014_11_24_17h27m26s38.jpg[/img]","torrent":{"xt":"urn:btih:3585a4a9109d55488b56de3c4ad4771d5f4d7859","amp;dn":"Grace+2014+HDRip+x264+AAC-MiLLENiUM","amp;tr":["udp%3A%2F%2Ftracker.openbittorrent.com%3A80","udp%3A%2F%2Fopen.demonii.com%3A1337","udp%3A%2F%2Ftracker.coppersurfer.tk%3A6969","udp%3A%2F%2Fexodus.desync.com%3A6969"],"infoHash":"3585a4a9109d55488b56de3c4ad4771d5f4d7859","infoHashBuffer":{"type":"Buffer","data":[53,133,164,169,16,157,85,72,139,86,222,60,74,212,119,29,95,77,120,89]},"announce":[],"urlList":[]}}